<?xml version="1.0" encoding="utf-8"?>
<!-- Generator: Adobe Illustrator 27.5.0, SVG Export Plug-In . SVG Version: 6.00 Build 0)  -->
<svg version="1.1" xmlns="http://www.w3.org/2000/svg" xmlns:xlink="http://www.w3.org/1999/xlink" x="0px" y="0px"
	 viewBox="0 0 600 500" style="enable-background:new 0 0 600 500;" xml:space="preserve">
<g id="BACKGROUND">
	<rect style="fill:#FFFFFF;" width="600" height="500"/>
</g>
<g id="OBJECT">
	<g>
		<path style="fill:#C2C6D6;" d="M548.8,288.895c0,55.86-18.52,107.42-49.74,148.85c-3.89,5.15-7.97,10.15-12.26,14.99H115.83
			c-4.29-4.84-8.38-9.84-12.26-14.99c-31.23-41.43-49.74-92.99-49.74-148.85c0-94.52,52.99-176.68,130.9-218.36
			c1-0.54,2.02-1.07,3.04-1.59c20.82-10.77,43.36-18.67,67.1-23.18c1-0.19,2-0.38,3-0.54c14.1-2.51,28.61-3.81,43.43-3.81h0.01
			C438.01,41.425,548.8,152.215,548.8,288.895z"/>
		<g>
			<g>
				<g>
					<path style="fill:#C2C6D6;" d="M470.964,177.711c0,13.305-10.828,24.133-24.133,24.133c-13.306,0-24.124-10.828-24.124-24.133
						c0-13.306,10.818-24.124,24.124-24.124C460.136,153.587,470.964,164.405,470.964,177.711z"/>
				</g>
				<g>
					<g>
						<path style="fill:#9298AD;" d="M446.835,157.528L446.835,157.528c-0.675,0-1.222-0.547-1.222-1.222v-2.443
							c0-0.675,0.547-1.222,1.222-1.222l0,0c0.675,0,1.222,0.547,1.222,1.222v2.443C448.057,156.981,447.51,157.528,446.835,157.528
							z"/>
					</g>
					<g>
						<path style="fill:#9298AD;" d="M446.835,197.903L446.835,197.903c-0.675,0-1.222,0.547-1.222,1.222v2.443
							c0,0.675,0.547,1.222,1.222,1.222l0,0c0.675,0,1.222-0.547,1.222-1.222v-2.443
							C448.057,198.449,447.51,197.903,446.835,197.903z"/>
					</g>
					<g>
						<path style="fill:#9298AD;" d="M467.022,177.715L467.022,177.715c0-0.675,0.547-1.222,1.222-1.222h2.443
							c0.675,0,1.222,0.547,1.222,1.222l0,0c0,0.675-0.547,1.222-1.222,1.222h-2.443
							C467.569,178.937,467.022,178.39,467.022,177.715z"/>
					</g>
					<g>
						<path style="fill:#9298AD;" d="M426.648,177.715L426.648,177.715c0-0.675-0.547-1.222-1.222-1.222h-2.443
							c-0.675,0-1.222,0.547-1.222,1.222l0,0c0,0.675,0.547,1.222,1.222,1.222h2.443
							C426.101,178.937,426.648,178.39,426.648,177.715z"/>
					</g>
				</g>
				<g>
					<path style="fill:#9298AD;" d="M446.831,146.404c-17.292,0-31.307,14.015-31.307,31.307c0,17.292,14.015,31.315,31.307,31.315
						c17.301,0,31.315-14.024,31.315-31.315C478.146,160.419,464.131,146.404,446.831,146.404z M446.831,201.844
						c-13.306,0-24.124-10.828-24.124-24.133c0-13.306,10.818-24.124,24.124-24.124c13.305,0,24.133,10.818,24.133,24.124
						C470.964,191.016,460.136,201.844,446.831,201.844z"/>
				</g>
				<g>
					<path style="fill:#9298AD;" d="M456.276,185.568c-0.331,0-0.664-0.094-0.962-0.288l-9.307-6.1
						c-0.495-0.324-0.794-0.877-0.794-1.469v-15.077c0-0.97,0.787-1.757,1.757-1.757c0.97,0,1.757,0.787,1.757,1.757v14.128
						l8.513,5.579c0.811,0.532,1.038,1.621,0.506,2.433C457.41,185.288,456.848,185.568,456.276,185.568z"/>
				</g>
				<g>
					<path style="fill:#9298AD;" d="M446.971,175.289c-1.336,0-2.422,1.086-2.422,2.422c0,1.336,1.086,2.422,2.422,2.422
						c1.336,0,2.422-1.086,2.422-2.422C449.393,176.376,448.306,175.289,446.971,175.289z"/>
				</g>
			</g>
			<g>
				<g>
					<path style="fill:#9298AD;" d="M509.935,241.463h-59.578c-3.789,0-6.862,3.073-6.862,6.862v80.477
						c0,3.789,3.073,6.862,6.862,6.862h59.578c3.79,0,6.862-3.073,6.862-6.862v-80.477
						C516.797,244.536,513.725,241.463,509.935,241.463z M509.935,328.802h-59.578v-80.477h59.578V328.802z"/>
				</g>
				<rect x="450.357" y="248.325" style="fill:#A7ACC4;" width="59.578" height="80.477"/>
			</g>
			<g>
				<path style="fill:#A7ACC4;" d="M214.85,226.357H110.532c-2.158,0-3.907-1.749-3.907-3.907v-57.824
					c0-2.158,1.749-3.907,3.907-3.907H214.85c2.158,0,3.907,1.749,3.907,3.907v57.824
					C218.757,224.607,217.007,226.357,214.85,226.357z"/>
				<g>
					<path style="fill:#9298AD;" d="M115.05,164.723L115.05,164.723c-0.998,0-1.807-0.809-1.807-1.807v-4.395
						c0-0.998,0.809-1.807,1.807-1.807h0c0.998,0,1.807,0.809,1.807,1.807v4.395C116.857,163.915,116.048,164.723,115.05,164.723z"
						/>
					<path style="fill:#9298AD;" d="M122.994,164.723L122.994,164.723c-0.998,0-1.807-0.809-1.807-1.807v-4.395
						c0-0.998,0.809-1.807,1.807-1.807l0,0c0.998,0,1.807,0.809,1.807,1.807v4.395C124.801,163.915,123.992,164.723,122.994,164.723
						z"/>
					<path style="fill:#9298AD;" d="M130.938,164.723L130.938,164.723c-0.998,0-1.807-0.809-1.807-1.807v-4.395
						c0-0.998,0.809-1.807,1.807-1.807l0,0c0.998,0,1.807,0.809,1.807,1.807v4.395C132.745,163.915,131.936,164.723,130.938,164.723
						z"/>
					<path style="fill:#9298AD;" d="M138.883,164.723L138.883,164.723c-0.998,0-1.807-0.809-1.807-1.807v-4.395
						c0-0.998,0.809-1.807,1.807-1.807l0,0c0.998,0,1.807,0.809,1.807,1.807v4.395C140.69,163.915,139.881,164.723,138.883,164.723z
						"/>
					<path style="fill:#9298AD;" d="M146.778,164.723L146.778,164.723c-0.998,0-1.807-0.809-1.807-1.807v-4.395
						c0-0.998,0.809-1.807,1.807-1.807l0,0c0.998,0,1.807,0.809,1.807,1.807v4.395C148.585,163.915,147.776,164.723,146.778,164.723
						z"/>
					<path style="fill:#9298AD;" d="M154.722,164.723L154.722,164.723c-0.998,0-1.807-0.809-1.807-1.807v-4.395
						c0-0.998,0.809-1.807,1.807-1.807l0,0c0.998,0,1.807,0.809,1.807,1.807v4.395C156.529,163.915,155.72,164.723,154.722,164.723z
						"/>
					<path style="fill:#9298AD;" d="M162.667,164.723L162.667,164.723c-0.998,0-1.807-0.809-1.807-1.807v-4.395
						c0-0.998,0.809-1.807,1.807-1.807l0,0c0.998,0,1.807,0.809,1.807,1.807v4.395C164.474,163.915,163.665,164.723,162.667,164.723
						z"/>
					<path style="fill:#9298AD;" d="M170.611,164.723L170.611,164.723c-0.998,0-1.807-0.809-1.807-1.807v-4.395
						c0-0.998,0.809-1.807,1.807-1.807l0,0c0.998,0,1.807,0.809,1.807,1.807v4.395C172.418,163.915,171.609,164.723,170.611,164.723
						z"/>
					<path style="fill:#9298AD;" d="M178.555,164.723L178.555,164.723c-0.998,0-1.807-0.809-1.807-1.807v-4.395
						c0-0.998,0.809-1.807,1.807-1.807l0,0c0.998,0,1.807,0.809,1.807,1.807v4.395C180.362,163.915,179.553,164.723,178.555,164.723
						z"/>
					<path style="fill:#9298AD;" d="M186.499,164.723L186.499,164.723c-0.998,0-1.807-0.809-1.807-1.807v-4.395
						c0-0.998,0.809-1.807,1.807-1.807l0,0c0.998,0,1.807,0.809,1.807,1.807v4.395C188.306,163.915,187.497,164.723,186.499,164.723
						z"/>
					<path style="fill:#9298AD;" d="M194.444,164.723L194.444,164.723c-0.998,0-1.807-0.809-1.807-1.807v-4.395
						c0-0.998,0.809-1.807,1.807-1.807l0,0c0.998,0,1.807,0.809,1.807,1.807v4.395C196.251,163.915,195.442,164.723,194.444,164.723
						z"/>
					<path style="fill:#9298AD;" d="M202.388,164.723L202.388,164.723c-0.998,0-1.807-0.809-1.807-1.807v-4.395
						c0-0.998,0.809-1.807,1.807-1.807l0,0c0.998,0,1.807,0.809,1.807,1.807v4.395C204.195,163.915,203.386,164.723,202.388,164.723
						z"/>
					<path style="fill:#9298AD;" d="M210.332,164.723L210.332,164.723c-0.998,0-1.807-0.809-1.807-1.807v-4.395
						c0-0.998,0.809-1.807,1.807-1.807l0,0c0.998,0,1.807,0.809,1.807,1.807v4.395C212.139,163.915,211.33,164.723,210.332,164.723z
						"/>
				</g>
				<g>
					<g>
						<g>
							<path style="fill:#DEB1B6;" d="M122.985,179.993h-8.576c-0.719,0-1.302-0.583-1.302-1.302v-4.558
								c0-0.719,0.583-1.302,1.302-1.302h8.576c0.719,0,1.302,0.583,1.302,1.302v4.558
								C124.287,179.41,123.704,179.993,122.985,179.993z"/>
						</g>
						<path style="fill:#C2C6D6;" d="M137.658,179.993h-8.576c-0.719,0-1.302-0.583-1.302-1.302v-4.558
							c0-0.719,0.583-1.302,1.302-1.302h8.576c0.719,0,1.302,0.583,1.302,1.302v4.558
							C138.96,179.41,138.377,179.993,137.658,179.993z"/>
						<path style="fill:#C2C6D6;" d="M152.331,179.993h-8.576c-0.719,0-1.302-0.583-1.302-1.302v-4.558
							c0-0.719,0.583-1.302,1.302-1.302h8.576c0.719,0,1.302,0.583,1.302,1.302v4.558
							C153.633,179.41,153.05,179.993,152.331,179.993z"/>
						<path style="fill:#C2C6D6;" d="M167.004,179.993h-8.576c-0.719,0-1.302-0.583-1.302-1.302v-4.558
							c0-0.719,0.583-1.302,1.302-1.302h8.576c0.719,0,1.302,0.583,1.302,1.302v4.558
							C168.306,179.41,167.723,179.993,167.004,179.993z"/>
						<path style="fill:#C2C6D6;" d="M181.628,179.993h-8.576c-0.719,0-1.302-0.583-1.302-1.302v-4.558
							c0-0.719,0.583-1.302,1.302-1.302h8.576c0.719,0,1.302,0.583,1.302,1.302v4.558
							C182.93,179.41,182.347,179.993,181.628,179.993z"/>
						<path style="fill:#C2C6D6;" d="M196.301,179.993h-8.576c-0.719,0-1.302-0.583-1.302-1.302v-4.558
							c0-0.719,0.583-1.302,1.302-1.302h8.576c0.719,0,1.302,0.583,1.302,1.302v4.558
							C197.603,179.41,197.02,179.993,196.301,179.993z"/>
						<path style="fill:#C2C6D6;" d="M210.974,179.993h-8.576c-0.719,0-1.302-0.583-1.302-1.302v-4.558
							c0-0.719,0.583-1.302,1.302-1.302h8.576c0.719,0,1.302,0.583,1.302,1.302v4.558
							C212.276,179.41,211.693,179.993,210.974,179.993z"/>
					</g>
				</g>
				<g>
					<g>
						<path style="fill:#C2C6D6;" d="M122.985,190.152h-8.576c-0.719,0-1.302-0.583-1.302-1.302v-4.558
							c0-0.719,0.583-1.302,1.302-1.302h8.576c0.719,0,1.302,0.583,1.302,1.302v4.558
							C124.287,189.569,123.704,190.152,122.985,190.152z"/>
						<path style="fill:#C2C6D6;" d="M137.658,190.152h-8.576c-0.719,0-1.302-0.583-1.302-1.302v-4.558
							c0-0.719,0.583-1.302,1.302-1.302h8.576c0.719,0,1.302,0.583,1.302,1.302v4.558
							C138.96,189.569,138.377,190.152,137.658,190.152z"/>
						<path style="fill:#C2C6D6;" d="M152.331,190.152h-8.576c-0.719,0-1.302-0.583-1.302-1.302v-4.558
							c0-0.719,0.583-1.302,1.302-1.302h8.576c0.719,0,1.302,0.583,1.302,1.302v4.558
							C153.633,189.569,153.05,190.152,152.331,190.152z"/>
						<path style="fill:#C2C6D6;" d="M167.004,190.152h-8.576c-0.719,0-1.302-0.583-1.302-1.302v-4.558
							c0-0.719,0.583-1.302,1.302-1.302h8.576c0.719,0,1.302,0.583,1.302,1.302v4.558
							C168.306,189.569,167.723,190.152,167.004,190.152z"/>
						<path style="fill:#C2C6D6;" d="M181.628,190.152h-8.576c-0.719,0-1.302-0.583-1.302-1.302v-4.558
							c0-0.719,0.583-1.302,1.302-1.302h8.576c0.719,0,1.302,0.583,1.302,1.302v4.558
							C182.93,189.569,182.347,190.152,181.628,190.152z"/>
						<path style="fill:#C2C6D6;" d="M196.301,190.152h-8.576c-0.719,0-1.302-0.583-1.302-1.302v-4.558
							c0-0.719,0.583-1.302,1.302-1.302h8.576c0.719,0,1.302,0.583,1.302,1.302v4.558
							C197.603,189.569,197.02,190.152,196.301,190.152z"/>
						<path style="fill:#C2C6D6;" d="M210.974,190.152h-8.576c-0.719,0-1.302-0.583-1.302-1.302v-4.558
							c0-0.719,0.583-1.302,1.302-1.302h8.576c0.719,0,1.302,0.583,1.302,1.302v4.558
							C212.276,189.569,211.693,190.152,210.974,190.152z"/>
					</g>
				</g>
				<g>
					<g>
						<path style="fill:#C2C6D6;" d="M122.985,200.31h-8.576c-0.719,0-1.302-0.583-1.302-1.302v-4.558
							c0-0.719,0.583-1.302,1.302-1.302h8.576c0.719,0,1.302,0.583,1.302,1.302v4.558
							C124.287,199.727,123.704,200.31,122.985,200.31z"/>
						<path style="fill:#C2C6D6;" d="M137.658,200.31h-8.576c-0.719,0-1.302-0.583-1.302-1.302v-4.558
							c0-0.719,0.583-1.302,1.302-1.302h8.576c0.719,0,1.302,0.583,1.302,1.302v4.558C138.96,199.727,138.377,200.31,137.658,200.31
							z"/>
						<path style="fill:#C2C6D6;" d="M152.331,200.31h-8.576c-0.719,0-1.302-0.583-1.302-1.302v-4.558
							c0-0.719,0.583-1.302,1.302-1.302h8.576c0.719,0,1.302,0.583,1.302,1.302v4.558C153.633,199.727,153.05,200.31,152.331,200.31
							z"/>
						<g>
							<path style="fill:#DEB1B6;" d="M167.004,200.31h-8.576c-0.719,0-1.302-0.583-1.302-1.302v-4.558
								c0-0.719,0.583-1.302,1.302-1.302h8.576c0.719,0,1.302,0.583,1.302,1.302v4.558
								C168.306,199.727,167.723,200.31,167.004,200.31z"/>
						</g>
						<path style="fill:#C2C6D6;" d="M181.628,200.31h-8.576c-0.719,0-1.302-0.583-1.302-1.302v-4.558
							c0-0.719,0.583-1.302,1.302-1.302h8.576c0.719,0,1.302,0.583,1.302,1.302v4.558C182.93,199.727,182.347,200.31,181.628,200.31
							z"/>
						<path style="fill:#C2C6D6;" d="M196.301,200.31h-8.576c-0.719,0-1.302-0.583-1.302-1.302v-4.558
							c0-0.719,0.583-1.302,1.302-1.302h8.576c0.719,0,1.302,0.583,1.302,1.302v4.558C197.603,199.727,197.02,200.31,196.301,200.31
							z"/>
						<path style="fill:#C2C6D6;" d="M210.974,200.31h-8.576c-0.719,0-1.302-0.583-1.302-1.302v-4.558
							c0-0.719,0.583-1.302,1.302-1.302h8.576c0.719,0,1.302,0.583,1.302,1.302v4.558
							C212.276,199.727,211.693,200.31,210.974,200.31z"/>
					</g>
				</g>
				<g>
					<g>
						<path style="fill:#C2C6D6;" d="M122.985,210.468h-8.576c-0.719,0-1.302-0.583-1.302-1.302v-4.558
							c0-0.719,0.583-1.302,1.302-1.302h8.576c0.719,0,1.302,0.583,1.302,1.302v4.558
							C124.287,209.885,123.704,210.468,122.985,210.468z"/>
						<path style="fill:#C2C6D6;" d="M137.658,210.468h-8.576c-0.719,0-1.302-0.583-1.302-1.302v-4.558
							c0-0.719,0.583-1.302,1.302-1.302h8.576c0.719,0,1.302,0.583,1.302,1.302v4.558
							C138.96,209.885,138.377,210.468,137.658,210.468z"/>
						<path style="fill:#C2C6D6;" d="M152.331,210.468h-8.576c-0.719,0-1.302-0.583-1.302-1.302v-4.558
							c0-0.719,0.583-1.302,1.302-1.302h8.576c0.719,0,1.302,0.583,1.302,1.302v4.558
							C153.633,209.885,153.05,210.468,152.331,210.468z"/>
						<path style="fill:#C2C6D6;" d="M167.004,210.468h-8.576c-0.719,0-1.302-0.583-1.302-1.302v-4.558
							c0-0.719,0.583-1.302,1.302-1.302h8.576c0.719,0,1.302,0.583,1.302,1.302v4.558
							C168.306,209.885,167.723,210.468,167.004,210.468z"/>
						<path style="fill:#C2C6D6;" d="M181.628,210.468h-8.576c-0.719,0-1.302-0.583-1.302-1.302v-4.558
							c0-0.719,0.583-1.302,1.302-1.302h8.576c0.719,0,1.302,0.583,1.302,1.302v4.558
							C182.93,209.885,182.347,210.468,181.628,210.468z"/>
						<path style="fill:#C2C6D6;" d="M196.301,210.468h-8.576c-0.719,0-1.302-0.583-1.302-1.302v-4.558
							c0-0.719,0.583-1.302,1.302-1.302h8.576c0.719,0,1.302,0.583,1.302,1.302v4.558
							C197.603,209.885,197.02,210.468,196.301,210.468z"/>
						<path style="fill:#C2C6D6;" d="M210.974,210.468h-8.576c-0.719,0-1.302-0.583-1.302-1.302v-4.558
							c0-0.719,0.583-1.302,1.302-1.302h8.576c0.719,0,1.302,0.583,1.302,1.302v4.558
							C212.276,209.885,211.693,210.468,210.974,210.468z"/>
					</g>
				</g>
				<g>
					<g>
						<g>
							<path style="fill:#DEB1B6;" d="M122.985,220.626h-8.576c-0.719,0-1.302-0.583-1.302-1.302v-4.558
								c0-0.719,0.583-1.302,1.302-1.302h8.576c0.719,0,1.302,0.583,1.302,1.302v4.558
								C124.287,220.043,123.704,220.626,122.985,220.626z"/>
						</g>
						<path style="fill:#C2C6D6;" d="M137.658,220.626h-8.576c-0.719,0-1.302-0.583-1.302-1.302v-4.558
							c0-0.719,0.583-1.302,1.302-1.302h8.576c0.719,0,1.302,0.583,1.302,1.302v4.558
							C138.96,220.043,138.377,220.626,137.658,220.626z"/>
						<path style="fill:#C2C6D6;" d="M152.331,220.626h-8.576c-0.719,0-1.302-0.583-1.302-1.302v-4.558
							c0-0.719,0.583-1.302,1.302-1.302h8.576c0.719,0,1.302,0.583,1.302,1.302v4.558
							C153.633,220.043,153.05,220.626,152.331,220.626z"/>
						<path style="fill:#C2C6D6;" d="M167.004,220.626h-8.576c-0.719,0-1.302-0.583-1.302-1.302v-4.558
							c0-0.719,0.583-1.302,1.302-1.302h8.576c0.719,0,1.302,0.583,1.302,1.302v4.558
							C168.306,220.043,167.723,220.626,167.004,220.626z"/>
						<g>
							<path style="fill:#DEB1B6;" d="M181.628,220.626h-8.576c-0.719,0-1.302-0.583-1.302-1.302v-4.558
								c0-0.719,0.583-1.302,1.302-1.302h8.576c0.719,0,1.302,0.583,1.302,1.302v4.558
								C182.93,220.043,182.347,220.626,181.628,220.626z"/>
						</g>
						<path style="fill:#C2C6D6;" d="M196.301,220.626h-8.576c-0.719,0-1.302-0.583-1.302-1.302v-4.558
							c0-0.719,0.583-1.302,1.302-1.302h8.576c0.719,0,1.302,0.583,1.302,1.302v4.558
							C197.603,220.043,197.02,220.626,196.301,220.626z"/>
						<path style="fill:#C2C6D6;" d="M210.974,220.626h-8.576c-0.719,0-1.302-0.583-1.302-1.302v-4.558
							c0-0.719,0.583-1.302,1.302-1.302h8.576c0.719,0,1.302,0.583,1.302,1.302v4.558
							C212.276,220.043,211.693,220.626,210.974,220.626z"/>
					</g>
				</g>
			</g>
		</g>
		<g style="opacity:0.2;">
			<g>
				<path style="fill:#FFFFFF;" d="M503.44,146.075L97.65,429.545c-16.55-23.92-28.98-50.87-36.3-79.87v-0.01l379.57-265.14
					C465.24,101.165,486.44,122.035,503.44,146.075z"/>
				<path style="fill:#FFFFFF;" d="M378.81,53.795L53.96,280.715c0.33-10.15,1.27-20.15,2.8-29.95l292.92-204.62
					C359.62,48.105,369.34,50.675,378.81,53.795z"/>
				<path style="fill:#FFFFFF;" d="M548.8,288.895c0,1.95-0.02,3.89-0.07,5.82l-226.2,158.02h-85.56l306.69-214.24
					C547.03,254.765,548.8,271.625,548.8,288.895z"/>
			</g>
		</g>
	</g>
	<g>
		<g>
			<g>
				<g>
					<path style="fill:#9298AD;" d="M257.87,45.225v19.42h-3v-18.88C255.87,45.575,256.87,45.385,257.87,45.225z"/>
				</g>
				<g>
					<g>
						<path style="fill:#6A76E3;" d="M298.655,89.121h-84.57l25.69-20.53c2.36-1.89,5-3.34,7.8-4.32c1.05-0.37,2.13-0.67,3.22-0.91
							h0.01c1.82-0.39,3.69-0.59,5.57-0.59c6.03,0,11.89,2.05,16.6,5.82L298.655,89.121z"/>
						<path style="fill:#7E8BFA;" d="M287.515,89.121h-73.43l25.69-20.53c2.36-1.89,5-3.34,7.8-4.32c1.05-0.37,2.13-0.67,3.22-0.91
							h0.01c4.01,0.86,7.79,2.64,11.03,5.23L287.515,89.121z"/>
						<g>
							<path style="fill:#8C98FA;" d="M235.247,79.23l-6.183,5.062c-0.882,0.722-2.182,0.593-2.904-0.289l0,0
								c-0.722-0.882-0.593-2.182,0.289-2.905l6.183-5.062c0.882-0.722,2.182-0.592,2.904,0.29l0,0
								C236.258,77.207,236.129,78.508,235.247,79.23z"/>
							<path style="fill:#8C98FA;" d="M240.154,75.212l-0.681,0.558c-0.882,0.722-2.182,0.592-2.904-0.289l0,0
								c-0.722-0.882-0.592-2.182,0.29-2.905l0.681-0.558c0.882-0.722,2.182-0.592,2.905,0.29l0,0
								C241.165,73.189,241.036,74.49,240.154,75.212z"/>
						</g>
					</g>
					<g>
						<path style="fill:#DDDFE6;" d="M302.685,93.621c0,1.24-0.51,2.36-1.32,3.18c-0.81,0.82-1.94,1.32-3.18,1.32h-83.63
							c-2.48,0-4.5-2.02-4.5-4.5c0-1.24,0.5-2.37,1.32-3.18c0.82-0.82,1.94-1.32,3.18-1.32h83.63
							C300.665,89.121,302.685,91.131,302.685,93.621z"/>
						<path style="fill:#FFFFFF;" d="M291.325,93.621c0,1.24-0.5,2.36-1.32,3.18c-0.81,0.82-1.93,1.32-3.18,1.32h-72.27
							c-2.48,0-4.5-2.02-4.5-4.5c0-1.24,0.5-2.37,1.32-3.18c0.82-0.82,1.94-1.32,3.18-1.32h72.27
							C289.315,89.121,291.325,91.131,291.325,93.621z"/>
					</g>
					<g>
						<path style="fill:#FFFFFF;" d="M264.675,98.121c0,1.02-0.18,2-0.52,2.9c-1.17,3.16-4.22,5.41-7.78,5.41
							c-3.57,0-6.62-2.25-7.79-5.41c-0.34-0.9-0.52-1.88-0.52-2.9H264.675z"/>
						<path style="fill:#DDDFE6;" d="M264.675,98.121c0,1.02-0.18,2-0.52,2.9h-15.57c-0.34-0.9-0.52-1.88-0.52-2.9H264.675z"/>
					</g>
				</g>
			</g>
			<g>
				<g>
					<g>
						<path style="fill:#FFFFFF;" d="M218.816,280.359H96.888c-10.254,0-18.567-8.313-18.567-18.567v0
							c0-10.254,8.313-18.567,18.567-18.567h121.928c10.254,0,18.567,8.313,18.567,18.567v0
							C237.383,272.046,229.071,280.359,218.816,280.359z"/>
						<polygon style="fill:#FFFFFF;" points="251.937,256.086 233.608,257.649 233.608,269.326 						"/>
					</g>
				</g>
				<g>
					<g>
						
							<ellipse transform="matrix(0.7167 -0.6973 0.6973 0.7167 -154.6976 143.0556)" style="fill:#6A76E3;" cx="98.742" cy="261.949" rx="12.273" ry="12.273"/>
						<g>
							<path style="fill:#FFFFFF;" d="M103.646,270.357h-9.808v-2.229c0-2.708,2.196-4.904,4.904-4.904l0,0
								c2.709,0,4.904,2.196,4.904,4.904V270.357z"/>
							<circle style="fill:#FFFFFF;" cx="98.742" cy="257.649" r="4.108"/>
						</g>
					</g>
					<g>
						
							<ellipse transform="matrix(0.231 -0.973 0.973 0.231 -156.0865 326.4211)" style="fill:#EA4053;" cx="128.447" cy="261.949" rx="12.273" ry="12.273"/>
						<g>
							<path style="fill:#FFFFFF;" d="M133.351,270.357h-9.808v-2.229c0-2.708,2.196-4.904,4.904-4.904l0,0
								c2.708,0,4.904,2.196,4.904,4.904V270.357z"/>
							<circle style="fill:#FFFFFF;" cx="128.447" cy="257.649" r="4.108"/>
						</g>
					</g>
					<g>
						
							<ellipse transform="matrix(0.7071 -0.7071 0.7071 0.7071 -138.9789 188.373)" style="fill:#EA4053;" cx="157.897" cy="261.949" rx="12.273" ry="12.273"/>
						<g>
							<path style="fill:#FFFFFF;" d="M162.801,270.357h-9.808v-2.229c0-2.708,2.196-4.904,4.904-4.904l0,0
								c2.708,0,4.904,2.196,4.904,4.904V270.357z"/>
							<circle style="fill:#FFFFFF;" cx="157.897" cy="257.649" r="4.108"/>
						</g>
					</g>
					<g>
						
							<ellipse transform="matrix(0.231 -0.973 0.973 0.231 -110.5943 383.9767)" style="fill:#EA4053;" cx="187.602" cy="261.949" rx="12.273" ry="12.273"/>
						<g>
							<path style="fill:#FFFFFF;" d="M192.506,270.357h-9.808v-2.229c0-2.708,2.196-4.904,4.904-4.904l0,0
								c2.708,0,4.904,2.196,4.904,4.904V270.357z"/>
							<circle style="fill:#FFFFFF;" cx="187.602" cy="257.649" r="4.108"/>
						</g>
					</g>
					<g>
						
							<ellipse transform="matrix(0.7071 -0.7071 0.7071 0.7071 -121.5782 230.3819)" style="fill:#EA4053;" cx="217.306" cy="261.949" rx="12.273" ry="12.273"/>
						<g>
							<path style="fill:#FFFFFF;" d="M222.21,270.357h-9.808v-2.229c0-2.708,2.196-4.904,4.904-4.904l0,0
								c2.708,0,4.904,2.196,4.904,4.904V270.357z"/>
							<circle style="fill:#FFFFFF;" cx="217.306" cy="257.649" r="4.108"/>
						</g>
					</g>
				</g>
			</g>
			<g>
				<g>
					<path style="fill:#FEA530;" d="M462.903,264.783h-50.242c-10.338,0-18.719-8.381-18.719-18.719l0,0
						c0-10.338,8.381-18.719,18.719-18.719h50.242c10.338,0,18.719,8.381,18.719,18.719l0,0
						C481.622,256.402,473.241,264.783,462.903,264.783z"/>
					<g>
						<g>
							<g>
								<path style="fill:#FEC230;" d="M421.662,236.074h-9.583c-1.639,0-2.968-1.329-2.968-2.968l0,0
									c0-1.639,1.329-2.968,2.968-2.968h9.583c1.639,0,2.968,1.329,2.968,2.968l0,0
									C424.63,234.745,423.301,236.074,421.662,236.074z"/>
							</g>
							<g>
								<path style="fill:#FEC230;" d="M431.041,236.074h-1.153c-1.639,0-2.968-1.329-2.968-2.968l0,0
									c0-1.639,1.329-2.968,2.968-2.968h1.153c1.639,0,2.968,1.329,2.968,2.968l0,0
									C434.009,234.745,432.681,236.074,431.041,236.074z"/>
							</g>
						</g>
					</g>
				</g>
				<polygon style="fill:#FEA530;" points="403.627,273.222 413.83,264.783 430.114,264.783 				"/>
				<g>
					<circle style="fill:#FFFFFF;" cx="418.651" cy="246.064" r="5.2"/>
					<circle style="fill:#FFFFFF;" cx="437.782" cy="246.064" r="5.2"/>
					<circle style="fill:#FFFFFF;" cx="456.913" cy="246.064" r="5.2"/>
				</g>
			</g>
			<g>
				<g>
					<g>
						<path style="fill:#FFFFFF;" d="M526.673,284.49v29.073c0,1.909-1.539,3.457-3.448,3.457h-49.624
							c-1.909,0-3.457-1.548-3.457-3.457V284.49c0-1.075,0.49-2.029,1.247-2.666c0.602-0.499,1.376-0.8,2.21-0.8h49.624
							c0.834,0,1.608,0.301,2.201,0.8C526.191,282.46,526.673,283.415,526.673,284.49z"/>
						<path style="fill:#DDDFE6;" d="M526.673,308.36v4.635l-26.278-17.834c-1.204-0.808-2.769-0.808-3.973,0l-26.278,17.834v-4.635
							l25.831-17.533c1.47-0.997,3.388-0.997,4.867,0L526.673,308.36z"/>
						<g>
							<path style="fill:#FFFFFF;" d="M525.425,281.823l-25.254,17.141c-1.065,0.723-2.462,0.723-3.527,0l-25.254-17.141
								c0.6-0.502,1.377-0.797,2.214-0.797h49.618C524.058,281.026,524.835,281.321,525.425,281.823z"/>
							<path style="fill:#DDDFE6;" d="M526.673,284.49v0.611l-26.097,17.722c-1.316,0.886-3.027,0.886-4.334,0L470.144,285.1v-0.611
								c0-1.075,0.49-2.029,1.247-2.666l25.255,17.137c1.066,0.722,2.459,0.722,3.525,0l25.255-17.137
								C526.191,282.46,526.673,283.415,526.673,284.49z"/>
						</g>
					</g>
					<g>
						<g>
							<path style="fill:#EA4053;" d="M531.315,321.674h-16.459c-1.764,0-3.195-1.43-3.195-3.195v-6.078
								c0-1.764,1.43-3.195,3.195-3.195h16.459c1.764,0,3.195,1.43,3.195,3.195v6.078
								C534.51,320.244,533.079,321.674,531.315,321.674z"/>
							<path style="fill:#FA5D6E;" d="M518.453,312.536h-3.621c-0.667,0-1.207-0.54-1.207-1.207l0,0c0-0.667,0.54-1.207,1.207-1.207
								h3.621c0.667,0,1.207,0.54,1.207,1.207l0,0C519.66,311.996,519.12,312.536,518.453,312.536z"/>
							<path style="fill:#FA5D6E;" d="M522.275,312.536h-0.747c-0.667,0-1.207-0.54-1.207-1.207l0,0c0-0.667,0.54-1.207,1.207-1.207
								h0.747c0.667,0,1.207,0.54,1.207,1.207l0,0C523.482,311.996,522.941,312.536,522.275,312.536z"/>
						</g>
						<text transform="matrix(1 0 0 1 514.2211 318.7559)" style="fill:#FFFFFF; font-family:'Rubik-Bold'; font-size:9.2282px;">321</text>
					</g>
				</g>
			</g>
			<g>
				<g>
					
						<ellipse transform="matrix(0.7573 -0.6531 0.6531 0.7573 -89.5034 174.2382)" style="fill:#FEA530;" cx="189.649" cy="207.527" rx="25.921" ry="25.921"/>
					<g>
						<path style="fill:#FEC230;" d="M171.826,194.253c0.838,2.477,4.788,3.378,8.821,2.012c4.034-1.365,6.625-4.479,5.786-6.956
							c-0.838-2.477-4.787-3.378-8.821-2.013C173.579,188.662,170.988,191.776,171.826,194.253z"/>
						<path style="fill:#FEC230;" d="M167.964,197.573c-0.743,1.286-0.552,2.787,0.426,3.352c0.978,0.565,2.372-0.021,3.115-1.307
							c0.743-1.287,0.552-2.787-0.425-3.352C170.101,195.701,168.706,196.286,167.964,197.573z"/>
					</g>
				</g>
				<g>
					<path style="fill:#FFFFFF;" d="M189.786,195.335c1.282,0,2.49,0.178,3.623,0.532c1.133,0.355,2.118,0.847,2.954,1.476
						c0.836,0.63,1.494,1.374,1.975,2.232c0.481,0.859,0.721,1.803,0.721,2.834c0,0.824-0.138,1.545-0.412,2.163
						c-0.275,0.618-0.624,1.18-1.048,1.683c-0.424,0.504-0.888,0.956-1.391,1.356c-0.504,0.401-0.99,0.796-1.459,1.185
						c-0.47,0.39-0.894,0.796-1.271,1.219c-0.378,0.424-0.635,0.888-0.772,1.391c-0.068,0.252-0.178,0.469-0.327,0.652
						c-0.149,0.184-0.349,0.275-0.601,0.275h-4.19c-0.252,0-0.47-0.092-0.653-0.275c-0.183-0.183-0.274-0.4-0.274-0.652
						c0-0.755,0.155-1.431,0.463-2.026c0.309-0.595,0.693-1.139,1.151-1.631c0.458-0.492,0.955-0.944,1.493-1.356
						c0.538-0.412,1.036-0.807,1.494-1.185c0.458-0.378,0.842-0.76,1.15-1.15c0.309-0.389,0.464-0.812,0.464-1.27
						c0-0.664-0.252-1.185-0.755-1.563c-0.504-0.378-1.282-0.567-2.335-0.567c-1.031,0-1.768,0.155-2.215,0.464
						c-0.447,0.309-0.773,0.647-0.98,1.013c-0.206,0.367-0.384,0.704-0.532,1.013c-0.15,0.309-0.441,0.464-0.876,0.464h-4.191
						c-0.206,0-0.384-0.068-0.532-0.206c-0.15-0.137-0.224-0.321-0.224-0.55c0.023-0.801,0.252-1.643,0.687-2.524
						c0.434-0.881,1.059-1.694,1.872-2.438c0.812-0.743,1.803-1.357,2.97-1.837C186.935,195.575,188.275,195.335,189.786,195.335z
						 M192.774,218.791c0,0.252-0.092,0.47-0.275,0.653c-0.183,0.183-0.4,0.275-0.653,0.275h-4.327c-0.252,0-0.47-0.091-0.653-0.275
						c-0.183-0.183-0.275-0.4-0.275-0.653v-3.468c0-0.252,0.092-0.469,0.275-0.653c0.183-0.183,0.4-0.275,0.653-0.275h4.327
						c0.252,0,0.47,0.092,0.653,0.275c0.183,0.183,0.275,0.401,0.275,0.653V218.791z"/>
				</g>
				<polygon style="fill:#FEA530;" points="219.557,223.984 207.186,224.112 207.641,216.19 				"/>
			</g>
			<g>
				<g>
					
						<ellipse transform="matrix(0.9264 -0.3765 0.3765 0.9264 -39.8455 209.7961)" style="fill:#2A304A;" cx="516.843" cy="206.843" rx="26.931" ry="26.931"/>
					<g>
						<path style="fill:#373D59;" d="M534.699,193.46c-1.196,3.533-6.83,4.819-12.585,2.871c-5.755-1.947-9.451-6.391-8.255-9.924
							c1.196-3.533,6.83-4.819,12.585-2.871C532.199,185.484,535.895,189.927,534.699,193.46z"/>
						<path style="fill:#373D59;" d="M540.21,198.197c1.06,1.835,0.788,3.976-0.607,4.782c-1.395,0.805-3.385-0.03-4.445-1.865
							c-1.06-1.835-0.788-3.976,0.607-4.782C537.16,195.526,539.15,196.361,540.21,198.197z"/>
					</g>
				</g>
				<path style="fill:#FFFFFF;" d="M532.211,204.059c-0.719,0-1.338-0.481-1.535-1.17c-0.301-1.026-0.707-2.005-1.211-2.926
					c-0.348-0.626-0.255-1.408,0.255-1.918c0.313-0.313,0.469-0.719,0.469-1.13c0-0.406-0.156-0.817-0.469-1.13l-1.761-1.761
					c-0.626-0.626-1.64-0.626-2.26,0c-0.307,0.307-0.713,0.464-1.124,0.464c-0.272,0-0.545-0.07-0.794-0.209
					c-0.921-0.504-1.9-0.91-2.926-1.211c-0.69-0.197-1.17-0.817-1.17-1.535c0-0.44-0.18-0.84-0.469-1.13
					c-0.29-0.29-0.684-0.469-1.13-0.469h-2.491c-0.881,0-1.599,0.718-1.599,1.599c0,0.719-0.481,1.338-1.17,1.535
					c-1.026,0.301-2.005,0.707-2.92,1.211c-0.632,0.348-1.408,0.255-1.918-0.255c-0.313-0.313-0.724-0.469-1.13-0.469
					c-0.411,0-0.817,0.156-1.13,0.469l-1.767,1.761c-0.62,0.626-0.62,1.64,0,2.26c0.307,0.307,0.464,0.718,0.464,1.13
					c0,0.267-0.064,0.539-0.203,0.788c-0.504,0.921-0.915,1.9-1.211,2.926c-0.203,0.689-0.823,1.17-1.535,1.17h-0.006
					c-0.881,0-1.593,0.713-1.593,1.599v2.491c0,0.881,0.713,1.599,1.593,1.599h0.006c0.713,0,1.333,0.481,1.535,1.17
					c0.296,1.026,0.707,2.005,1.211,2.92c0.348,0.632,0.249,1.414-0.261,1.918c-0.307,0.313-0.464,0.724-0.464,1.13
					c0,0.411,0.156,0.823,0.464,1.13l1.767,1.767c0.62,0.626,1.634,0.626,2.26,0c0.307-0.307,0.713-0.464,1.124-0.464
					c0.272,0,0.545,0.064,0.794,0.203c0.915,0.51,1.895,0.915,2.92,1.211c0.69,0.203,1.17,0.823,1.17,1.541
					c0,0.44,0.18,0.84,0.469,1.124c0.29,0.29,0.69,0.469,1.13,0.469h2.491c0.886,0,1.599-0.713,1.599-1.593
					c0-0.718,0.481-1.338,1.17-1.541c1.026-0.296,2.005-0.701,2.926-1.211c0.626-0.348,1.408-0.249,1.918,0.261
					c0.307,0.313,0.719,0.469,1.13,0.469c0.406,0,0.817-0.156,1.13-0.469l1.761-1.767c0.626-0.62,0.626-1.634,0-2.26
					c-0.307-0.301-0.464-0.707-0.464-1.118c0-0.272,0.069-0.551,0.208-0.8c0.504-0.915,0.91-1.895,1.211-2.92
					c0.197-0.689,0.817-1.17,1.535-1.17c0.44,0,0.84-0.18,1.13-0.469c0.29-0.29,0.469-0.689,0.469-1.13v-2.491
					C533.81,204.772,533.092,204.059,532.211,204.059z M516.84,215.659c-4.832,0-8.749-3.923-8.749-8.755s3.917-8.755,8.749-8.755
					c4.838,0,8.755,3.923,8.755,8.755S521.678,215.659,516.84,215.659z"/>
			</g>
			<g>
				<g>
					<circle style="fill:#2A304A;" cx="81.534" cy="214.823" r="19.969"/>
					<g>
						<path style="fill:#373D59;" d="M94.774,204.899c-0.887,2.62-5.065,3.573-9.332,2.129c-4.267-1.444-7.008-4.739-6.121-7.359
							c0.887-2.62,5.065-3.573,9.332-2.129C92.92,198.985,95.661,202.279,94.774,204.899z"/>
						<path style="fill:#373D59;" d="M98.861,208.412c0.786,1.361,0.584,2.948-0.45,3.546c-1.034,0.597-2.51-0.022-3.296-1.383
							c-0.786-1.361-0.584-2.948,0.45-3.546C96.599,206.432,98.075,207.051,98.861,208.412z"/>
					</g>
				</g>
				<g>
					<path style="fill:#FFFFFF;" d="M85.01,224.38c-0.148-0.027-0.308-0.043-0.484-0.043h-0.24v-12.209h-7.349v2.543h1.753v8.972
						c0,0.589-0.166,0.616-0.354,0.649c-0.143,0.029-0.318,0.045-0.519,0.045h-0.879v2.543h9.193v-0.879
						C86.13,224.686,85.293,224.428,85.01,224.38z"/>
					<path style="fill:#FFFFFF;" d="M79.529,209.409c0.595,0.316,1.229,0.477,1.884,0.477c1.514,0,2.752-0.709,3.487-1.997
						c0.356-0.611,0.537-1.272,0.537-1.966c0-1.533-0.746-2.781-2.047-3.482c-0.616-0.361-1.28-0.544-1.977-0.544
						c-1.5,0-2.741,0.737-3.518,2.114c-0.316,0.596-0.476,1.24-0.476,1.913C77.419,207.473,78.177,208.716,79.529,209.409z"/>
				</g>
			</g>
			<g>
				<g>
					
						<ellipse transform="matrix(0.9193 -0.3935 0.3935 0.9193 -50.3798 68.613)" style="fill:#6A76E3;" cx="142.152" cy="157.179" rx="24.579" ry="24.58"/>
					<g>
						<path style="fill:#7E8BFA;" d="M158.449,144.964c-1.091,3.225-6.234,4.398-11.487,2.62c-5.252-1.778-8.626-5.833-7.534-9.058
							c1.091-3.225,6.234-4.398,11.486-2.62C156.167,137.684,159.541,141.739,158.449,144.964z"/>
						<path style="fill:#7E8BFA;" d="M163.479,149.287c0.967,1.675,0.719,3.629-0.554,4.364c-1.273,0.735-3.089-0.027-4.056-1.702
							s-0.719-3.629,0.554-4.364C160.696,146.85,162.512,147.612,163.479,149.287z"/>
					</g>
				</g>
				<polygon style="fill:#6A76E3;" points="172.629,172.219 161.94,165.984 157.55,172.951 				"/>
				<g>
					<path style="fill:#FFFFFF;" d="M140.686,164.093c-0.294-0.051-0.584-0.111-0.867-0.177c-2.738-0.645-4.643-3.003-4.747-5.672
						l-0.042-1.065l0.042-1.065c0.104-2.669,2.009-5.027,4.747-5.672c0.283-0.067,0.572-0.126,0.867-0.177
						c1.103-0.19,1.98-0.996,2.251-2.025c0.348-1.322,0.616-3.245,0.164-5.422c-0.339-1.632-2.115-2.594-3.779-2.058
						c-2.879,0.929-7.136,3.189-8.89,8.606c-0.338,1.043-0.481,2.133-0.523,3.224c-0.059,1.53-0.139,3.854-0.106,4.572v0.032
						c-0.032,0.719,0.047,3.043,0.107,4.573c0.042,1.09,0.185,2.178,0.523,3.221c1.754,5.419,6.011,7.679,8.89,8.608
						c1.663,0.537,3.44-0.424,3.779-2.056c0.452-2.177,0.185-4.101-0.164-5.423C142.666,165.089,141.789,164.283,140.686,164.093z"
						/>
					<g>
						<path style="fill:#FFFFFF;" d="M147.359,151.273c-0.148-0.236-0.536-0.236-0.684,0l-2.683,4.276
							c-0.078,0.124-0.082,0.282-0.011,0.41c0.071,0.129,0.206,0.208,0.353,0.208h1.471v7.463c0,0.669,0.542,1.212,1.211,1.212
							c0.669,0,1.212-0.542,1.212-1.212v-7.463h1.471c0.147,0,0.282-0.08,0.353-0.208c0.071-0.129,0.067-0.286-0.011-0.41
							L147.359,151.273z"/>
						<path style="fill:#FFFFFF;" d="M156.824,159.973c-0.071-0.129-0.206-0.208-0.353-0.208H155v-7.464
							c0-0.669-0.542-1.212-1.212-1.212c-0.669,0-1.212,0.542-1.212,1.212v7.464h-1.471c-0.147,0-0.282,0.08-0.353,0.208
							c-0.071,0.129-0.067,0.286,0.011,0.41l2.682,4.276c0.074,0.118,0.203,0.189,0.342,0.189c0.139,0,0.268-0.071,0.342-0.189
							l2.683-4.276C156.891,160.259,156.895,160.101,156.824,159.973z"/>
					</g>
				</g>
			</g>
		</g>
	</g>
	<g>
		<g>
			<path style="fill:#2A304A;" d="M322.908,318.576v120.732h130.451V318.576c0-14.774-11.977-26.751-26.751-26.751h-76.949
				C334.885,291.825,322.908,303.802,322.908,318.576z"/>
			<path style="fill:#3F4870;" d="M322.908,318.576v120.732h117.799V318.576c0-14.774-11.977-26.751-26.751-26.751h-64.297
				C334.885,291.825,322.908,303.802,322.908,318.576z"/>
			<path style="fill:#525B83;" d="M322.908,318.576v120.732h102.538V318.576c0-14.774-11.977-26.751-26.751-26.751h-49.036
				C334.885,291.825,322.908,303.802,322.908,318.576z"/>
			<g>
				<g>
					<g>
						<path style="fill:#666E91;" d="M357.422,301.618h8.063c1.664,0,3.012-1.349,3.012-3.012l0,0c0-1.663-1.349-3.012-3.012-3.012
							h-8.063c-1.663,0-3.012,1.349-3.012,3.012l0,0C354.41,300.269,355.759,301.618,357.422,301.618z"/>
					</g>
					<g>
						<path style="fill:#666E91;" d="M346.649,301.618h1.606c1.663,0,3.012-1.349,3.012-3.012l0,0c0-1.663-1.348-3.012-3.012-3.012
							h-1.606c-1.663,0-3.012,1.349-3.012,3.012l0,0C343.637,300.269,344.986,301.618,346.649,301.618z"/>
					</g>
				</g>
			</g>
		</g>
		<g>
			<g>
				<path style="fill:#4E5BCF;" d="M308.034,284.087c0,0-2.349,1.07-5.841,3.42c-14.745,9.924-24.317,35.124-26.51,52.762
					l-6.541,52.603l-25.177,2.857c-9.804,0.856-17.673,8.621-18.43,18.434c-0.013,0.169-0.025,0.34-0.036,0.511
					c-0.796,12.243,9.658,22.266,21.886,21.269l32.18-3.24c4.566-0.372,8.897-2.182,12.37-5.17l0,0
					c4.373-3.762,7.065-9.112,7.48-14.865L308.034,284.087z"/>
				<g>
					<path style="fill:#F29D8F;" d="M236.835,430.007l-10.182-1.1l-7.593,0.109l-28.056,5.682c-1.361,0.277-2.645-0.741-2.666-2.129
						l0.004-0.102c-0.01-0.726,0.032-1.463,0.124-2.172c0.505-4.411,2.766-8.485,6.445-11.052c0.982-0.687,1.669-1.004,1.669-1.004
						c9.068-10.109,26.633-6.718,26.633-6.718l10.897-2.182c4.697-0.948,9.342,1.374,11.452,5.353
						c0.569,1.066,0.943,2.253,1.096,3.532c0.021,0.103,0.03,0.205,0.039,0.307C247.304,424.448,242.758,429.642,236.835,430.007z"
						/>
					<path style="fill:#FEB6AA;" d="M235.665,425.772l-10.169-1.113l-7.593,0.121l-28.056,5.682
						c-0.488,0.095-0.969,0.026-1.381-0.169c0.505-4.411,2.766-8.485,6.445-11.052c0.982-0.687,1.669-1.004,1.669-1.004
						c9.068-10.109,26.633-6.718,26.633-6.718l10.897-2.182c0.047-0.009,0.094-0.019,0.141-0.027
						c9.873-1.856,13.615,12.825,4.068,15.953C237.478,425.539,236.588,425.714,235.665,425.772z"/>
				</g>
			</g>
			<g>
				<g>
					<path style="fill:#FFFFFF;" d="M363.207,278.496c-11.462,32.982-39.54,87.644-39.54,87.644
						c-16.436-30.224-19.153-81.607-19.153-81.607c1.765-1.665,3.66-3.219,5.676-4.633c3.971-2.798,6.077-3.44,6.077-3.44
						l28.961-3.871c5.555,1.544,10.82,3.259,15.694,5.024C361.693,277.894,362.455,278.185,363.207,278.496z"/>
					<path style="fill:#7E8BFA;" d="M423.415,438.993H275.362l12.635-120.836c1.344-12.886,7.2-24.859,16.516-33.624
						c0,0,2.577,48.646,17.85,79.11c0.421,0.842,0.862,1.675,1.304,2.497c0,0,0.632-1.233,1.755-3.46
						c6.318-12.505,28.048-56.167,37.785-84.185c19.715,7.992,34.065,25.541,38.126,46.54L423.415,438.993z"/>
					<path style="fill:#DDDFE6;" d="M360.289,277.383c-7.952,16.656-22.824,31.448-22.824,31.448
						c-2.948-6.879-9.276-15.603-9.276-15.603l-5.545,3.269l-4.392-1.965c-1.414,2.948-5.566,9.938-5.566,9.938
						c-4.944-6.418-7.2-14.891-8.173-19.936c1.765-1.665,3.66-3.219,5.676-4.633c3.971-2.798,6.077-3.44,6.077-3.44l28.961-3.871
						C350.542,274.063,355.596,275.698,360.289,277.383z"/>
					<g>
						<path style="fill:#4E5BCF;" d="M325.422,362.68c-0.933,16.265-3.028,54.592-3.279,76.313h-3.008
							c0.241-21.299,2.256-58.463,3.229-75.35c0.421,0.842,0.862,1.675,1.304,2.497C323.667,366.14,324.299,364.906,325.422,362.68z
							"/>
					</g>
					<path style="fill:#6A76E3;" d="M363.207,352.532l-15.613-4.192l4.513,17.8c-11.863,21.089-29.572,56.909-29.572,56.909
						c0.712-21.249,2.156-47.603,2.888-60.368c6.318-12.505,28.048-56.167,37.785-84.185c7.571,3.069,14.35,7.551,20.056,13.096
						C373.776,314.516,363.207,352.532,363.207,352.532z"/>
					<path style="fill:#6A76E3;" d="M322.363,363.643c-0.752,13.046-2.126,38.196-2.828,58.784
						c-4.342-18.802-15.022-58.453-15.022-58.453l4.884-13.207l-7.922,4.262c-3.801-24.298-6.338-50.671-6.969-57.61
						c0-0.01,0-0.01,0-0.01c2.647-4.763,6.007-9.115,10.008-12.876C304.513,284.533,306.655,330.609,322.363,363.643z"/>
				</g>
				<g>
					<g>
						<path style="fill:#FEB6AA;" d="M343.529,235.714v34.959c-6.435,8.238-18.471,12.408-18.471,12.408l-2.265,8.509l-1.724-8.328
							c-3.708-2.085-4.801-6.796-4.801-6.796v-29.707L343.529,235.714z"/>
						<path style="fill:#F29D8F;" d="M343.529,234.711v14.384c-8.832,6.447-18.933,10.723-27.262,13.135v-16.474L343.529,234.711z"
							/>
					</g>
					<path style="fill:#FFFFFF;" d="M354.202,275.658c-4.031,8.052-16.767,24.328-16.767,24.328
						c-3.379-6.448-9.296-12.675-9.296-12.675l-5.345,4.282l2.266-8.514c0,0,12.033-4.172,18.471-12.404v-5.335
						C348.717,267.275,354.202,275.658,354.202,275.658z"/>
					<path style="fill:#FFFFFF;" d="M322.794,291.592l-3.891-4.604c0,0-4.298,5.587-5.802,10.368c0,0-3.886-11.335-5.068-16.6
						c0,0,2.274-6.931,8.234-9.939v5.648c0,0,1.024,4.453,4.801,6.796L322.794,291.592z"/>
				</g>
			</g>
			<g>
				<g>
					<path style="fill:#B51F2F;" d="M270.694,206.053c0,13.248-8.226,23.99-18.384,23.99c-10.148,0-18.374-10.742-18.374-23.99
						c0-6.718,2.12-12.805,5.541-17.149c1.677-2.148,3.665-3.863,5.87-5.041c2.148-1.159,4.495-1.79,6.963-1.79
						C262.468,182.072,270.694,192.814,270.694,206.053z"/>
					<path style="fill:#BD2B3B;" d="M249.163,202.787c-1.889,5.091-6.283,8.156-9.816,6.846c-3.533-1.311-4.866-6.5-2.978-11.591
						c1.888-5.091,6.283-8.156,9.816-6.846C249.718,192.506,251.051,197.695,249.163,202.787z"/>
					<path style="fill:#BD2B3B;" d="M242.144,214.559c0.365,2.128-0.537,4.059-2.014,4.312c-1.477,0.253-2.97-1.267-3.335-3.395
						c-0.365-2.128,0.537-4.059,2.014-4.312S241.779,212.431,242.144,214.559z"/>
				</g>
				<g>
					<path style="fill:#492934;" d="M388.186,158.352c-0.038,0.009-0.075,0.009-0.113,0.019c-5.522,1.018-12.297,1.093-20.608-0.32
						c0,0-15.142-13.833-27.561-22.539c0,0-0.16-2.412,0.085-6.144c0.207-3.232,0.726-7.463,1.922-11.967
						c6.417-24.245,36.325-32.433,54.463-15.124c4.815,4.608,9.329,10.742,12.382,18.893
						C414.796,137.245,405.072,155.186,388.186,158.352z"/>
					<path style="fill:#331E25;" d="M398.325,154.219c-2.959,1.988-6.37,3.43-10.139,4.137c-0.038,0.009-0.075,0.009-0.113,0.019
						c-5.522,1.018-12.297,1.093-20.608-0.32c0,0-15.142-13.833-27.561-22.539c0,0-0.16-2.412,0.085-6.144
						c0.207-3.232,0.726-7.463,1.922-11.967c0.009-0.019,0.009-0.047,0.019-0.066c5.823,0.735,18.751,3.863,28.862,17.046
						C370.792,134.384,389.515,136.419,398.325,154.219z"/>
					<g>
						
							<ellipse transform="matrix(0.1665 -0.986 0.986 0.1665 212.7282 455.5683)" style="fill:#55333F;" cx="375.843" cy="101.951" rx="6.886" ry="11.886"/>
						<path style="fill:#55333F;" d="M397.938,110.626c-0.997,1.289-3.609,0.939-5.835-0.781c-2.226-1.721-3.222-4.161-2.225-5.45
							c0.997-1.289,3.609-0.939,5.835,0.781C397.939,106.896,398.935,109.337,397.938,110.626z"/>
					</g>
				</g>
				<g>
					<path style="fill:#FEB6AA;" d="M371.498,219.368c-3.901,13.333-21.653,19.693-21.653,19.693
						c-21.069,16.028-44.362,21.154-56.471,22.794c-7.425,0.999-15.029,0.358-22.059-2.252c-9.847-3.656-15.924-9.818-19.665-15.764
						c-3.967-6.313-5.899-13.71-5.899-21.163V183.09c0,0,1.366-9.837,9.658-18.535c7.086-7.434,17.121-11.232,27.392-11.204
						c3.232,0,6.756,0.339,10.054,1.319c0,0,24.028,6.813,37.964-4.542c0,0-16.829,23.585,4.25,35.778
						c5.889,3.402,10.082,9.112,11.232,15.811c0.556,3.251,0.933,7.199,0.933,11.929c1.583-3.147,3.392-5.399,5.267-7.001
						C361.623,198.939,374.853,207.91,371.498,219.368z"/>
					<path style="fill:#F29D8F;" d="M259.944,168.15c0,0,16.173-11.653,33.878-8.279l-10.961-4.24
						C282.861,155.631,268.021,158.256,259.944,168.15z"/>
					<path style="fill:#F29D8F;" d="M346.302,201.719c-1.15-6.7-5.343-12.41-11.232-15.811c-21.079-12.193-4.25-35.778-4.25-35.778
						c-13.936,11.354-37.964,4.542-37.964,4.542c-3.298-0.98-6.822-1.319-10.054-1.319c-10.271-0.028-20.306,3.769-27.392,11.204
						c-8.028,8.424-9.564,17.922-9.649,18.506c0.367-0.98,11.939-30.794,44.39-24.169c1.715,0.358,3.392,0.867,5.051,1.432
						c4.542,1.545,16.744,5.041,24.857,1.159c0,0-9.914,20.144,10.002,27.338l-0.005-0.013c0.938,0.484,1.939,0.937,3.035,1.339
						c0,0,11.354,3.675,13.795,16.056C346.736,204.583,346.538,203.085,346.302,201.719z"/>
				</g>
				<g>
					<path style="fill:#492934;" d="M359.692,233.888c4.787-3.251,9.922-8.075,11.807-14.52
						c3.355-11.458-9.875-20.428-18.996-12.721c-1.875,1.602-3.684,3.854-5.267,7.001c0-4.73-0.377-8.678-0.933-11.929
						c-1.15-6.7-5.343-12.41-11.232-15.811c-21.079-12.193-4.25-35.778-4.25-35.778c-13.936,11.354-37.964,4.542-37.964,4.542
						c-3.298-0.98-6.822-1.319-10.054-1.319c-10.271-0.028-20.306,3.769-27.392,11.204c-8.292,8.697-9.658,18.535-9.658,18.535
						s-0.151,0.283-0.405,0.773c-2.205,1.178-4.193,2.893-5.87,5.041c-1.413-12.231-2.177-43.58,23.415-60.956
						c3.92-2.657,8.283-4.617,12.853-5.908c8.546-2.403,23.632-4.928,35.486,2.29c0,0,37.455-14.332,57.139,15.35
						c0,0,9.112-1.366,18.186,7.943c4.542,4.655,7.463,10.648,8.707,17.036C398.268,180.122,399.72,214.647,359.692,233.888z"/>
					<path style="fill:#55333F;" d="M259.944,142.405c0,0,19.535-9.389,47.854,4.846c0,0,0.505-6.663-4.745-11.913
						c0,0,37.253,2.524,46.743,34.427c0,0,1.212-39.777-60.777-41.191c0,0,7.723,5.805,10.752,10.803
						C299.772,139.377,279.176,129.23,259.944,142.405z"/>
					<path style="fill:#492934;" d="M298.854,155.905c0,0-24.676-3.807-38.91,12.245c0,0,8.884-15.749,28.773-16.557
						L298.854,155.905z"/>
					<path style="fill:#492934;" d="M326.089,153.149c0,0-12.233,18.485,3.061,33.779c0,0-10.633-17.505,2.675-36.798v-1.515
						L326.089,153.149z"/>
				</g>
				<g>
					<g>
						<circle style="fill:#E88676;" cx="276.763" cy="216.431" r="6.158"/>
						<path style="fill:#F29D8F;" d="M271.618,215.439c0,2.411,1.954,4.365,4.365,4.365c2.411,0,4.365-1.954,4.365-4.365
							c0-2.411-1.954-4.365-4.365-4.365C273.572,211.074,271.618,213.029,271.618,215.439z"/>
					</g>
					<g>
						<path style="fill:#492934;" d="M284.319,248.559c-0.072,0.021-0.135,0.042-0.207,0.062c-4.544,1.315-9.285-1.418-10.703-5.921
							l-2.246-7.132l-0.559-1.791c0,0,10.154-4.151,18.642-4.151l0.29,2.329l0.88,7.049
							C290.944,243.239,288.398,247.307,284.319,248.559z"/>
						<g>
							<path style="fill:#FB305B;" d="M277.762,245.416c0.476,1.872,3.209,2.792,6.104,2.056c2.895-0.737,4.856-2.851,4.379-4.723
								c-0.476-1.872-3.209-2.792-6.104-2.056C279.247,241.429,277.286,243.544,277.762,245.416z"/>
							<path style="fill:#FF4F74;" d="M278.709,244.501c0.263,1.034,1.906,1.509,3.67,1.06c1.763-0.449,2.98-1.651,2.716-2.685
								c-0.263-1.034-1.906-1.509-3.67-1.06C279.663,242.264,278.446,243.467,278.709,244.501z"/>
						</g>
						<g>
							<path style="fill:#F7E5E4;" d="M289.536,231.957c-1.832,2.029-5.248,3.706-9.316,4.347c-3.467,0.538-6.707,0.217-9.057-0.735
								l-0.383-1.211l-0.176-0.58c0,0,10.154-4.151,18.642-4.151l0.135,1.066L289.536,231.957z"/>
							<path style="fill:#FFFFFF;" d="M289.381,230.694c-2.081,1.956-5.527,3.54-9.564,4.171c-3.385,0.528-6.573,0.3-9.036-0.507
								l-0.176-0.58c0,0,10.154-4.151,18.642-4.151L289.381,230.694z"/>
						</g>
					</g>
					<g>
						<ellipse style="fill:#492934;" cx="306.267" cy="207.081" rx="8.34" ry="9.349"/>
						<path style="fill:#FFFFFF;" d="M305.333,205.921c0,1.802-1.461,3.263-3.263,3.263c-1.802,0-3.263-1.461-3.263-3.263
							c0-1.802,1.461-3.263,3.263-3.263C303.872,202.658,305.333,204.119,305.333,205.921z"/>
						<path style="fill:#492934;" d="M313.017,201.6c0,0,2.89,2.801,5.923,1.068c0,0-2.422,4.116-5.923,2.058V201.6z"/>
					</g>
					<g>
						<path style="fill:#492934;" d="M254.153,207.258c0,3.882,2.807,7.029,6.271,7.029c3.463,0,6.27-3.147,6.27-7.029
							c0-3.882-2.807-7.029-6.27-7.029C256.961,200.228,254.153,203.376,254.153,207.258z"/>
						<path style="fill:#FFFFFF;" d="M255.349,206.216c0,1.355,1.098,2.453,2.453,2.453c1.355,0,2.453-1.098,2.453-2.453
							s-1.098-2.453-2.453-2.453C256.447,203.762,255.349,204.861,255.349,206.216z"/>
						<path style="fill:#492934;" d="M255.349,203.137c0,0-2.173,2.106-4.453,0.803c0,0,1.821,3.095,4.453,1.548V203.137z"/>
					</g>
					<path style="fill:#492934;" d="M307.184,190.203c2.665,0.26,6.834,0.845,10.237,2.119c1.708,0.64,3.616-0.145,4.299-1.836
						l0.027-0.066c0.733-1.814-0.258-3.85-2.13-4.418c-3.01-0.913-7.677-1.868-12.606-1.121c-1.197,0.181-2.108,1.178-2.23,2.382
						l0,0C304.63,188.741,305.704,190.058,307.184,190.203z"/>
					<path style="fill:#492934;" d="M252.815,193.1c1.872-0.76,4.735-1.523,8.57-1.431c1.151,0.028,2.156-0.774,2.337-1.912l0,0
						c0.198-1.242-0.646-2.42-1.89-2.603c-2.391-0.353-6.448-0.581-10.903,0.77c-1.485,0.45-2.294,2.059-1.793,3.528l0,0
						C249.653,192.965,251.333,193.701,252.815,193.1z"/>
				</g>
				<g>
					<g>
						<path style="fill:#7E8BFA;" d="M377.161,195.105h-10.306c0,0,1.414-7.73,0.852-18.191
							c-0.939-18.085-7.74-44.354-37.767-53.111c-5.909-1.724-12.224-1.724-18.036,0.281c-0.233,0.077-0.455,0.165-0.668,0.242
							c0,0-2.77-1.705-5.172-2.489c0,0,2.819-1.482,7.623-2.567c8.844-1.995,18.085-0.959,26.415,2.606
							c13.503,5.763,36.102,20.632,37.816,55.823C378.178,183.016,377.965,188.809,377.161,195.105z"/>
						<path style="fill:#4F569C;" d="M377.161,195.105h-10.306c0,0,1.414-7.73,0.852-18.191c1.017-0.126,2.044-0.184,3.09-0.184
							c2.46,0,4.843,0.339,7.12,0.969C378.178,183.016,377.965,188.809,377.161,195.105z"/>
					</g>
					<g>
						<path style="fill:#7E8BFA;" d="M377.161,229.346c-0.872,3.71-2.383,7.158-4.436,10.229
							c-4.001,6.025-10.045,10.587-17.203,12.757c-15.983,4.843-35.801,8.466-48.674,10.539c-8.059,1.298-13.406,1.986-13.406,1.986
							v-6.122c3.72-0.533,7.73-1.201,11.895-1.976c16.37-3.003,35.142-7.517,48.219-11.459c4.049-1.211,7.652-3.419,10.52-6.316
							c3.322-3.332,5.696-7.594,6.722-12.36L377.161,229.346z"/>
						<path style="fill:#5A67D6;" d="M377.161,229.346c-0.872,3.71-2.383,7.158-4.436,10.229c-0.843,0.087-1.685,0.126-2.548,0.126
							c-2.092,0-4.136-0.252-6.102-0.717c3.322-3.332,5.696-7.594,6.722-12.36L377.161,229.346z"/>
						<path style="fill:#5A67D6;" d="M307.186,260.944c0,0.668-0.116,1.317-0.339,1.928c-8.059,1.298-13.406,1.986-13.406,1.986
							v-6.122c3.72-0.533,7.73-1.201,11.895-1.976c0.562,0.504,1.017,1.124,1.337,1.831c0.203,0.445,0.349,0.93,0.436,1.443
							C307.157,260.333,307.186,260.643,307.186,260.944z"/>
					</g>
					<g>
						<g>
							<ellipse style="fill:#B51F2F;" cx="370.796" cy="208.337" rx="26.956" ry="28.981"/>
							<g>
								<ellipse style="fill:#EA4053;" cx="377.156" cy="208.337" rx="22.715" ry="25.996"/>
								
									<ellipse transform="matrix(0.9944 -0.106 0.106 0.9944 -19.6904 41.3533)" style="fill:#F75265;" cx="379.2" cy="205.921" rx="18.517" ry="21.191"/>
							</g>
						</g>
						<g>
							<ellipse style="fill:#7E8BFA;" cx="382.103" cy="206.514" rx="8.682" ry="10.298"/>
							<path style="fill:#8F9AFA;" d="M390.015,204.316c0.765,4.398-1.621,8.486-5.329,9.13c-3.708,0.645-7.334-2.398-8.098-6.796
								c-0.765-4.398,1.621-8.486,5.329-9.13C385.625,196.876,389.251,199.919,390.015,204.316z"/>
						</g>
					</g>
					<g>
						<path style="fill:#492934;" d="M305.637,261.308c0,2.507-1.815,4.713-4.372,5.134l-6.899,1.123
							c-2.838,0.461-5.505-1.464-5.977-4.302c-0.04-0.201-0.06-0.401-0.06-0.602c-0.01-0.08-0.01-0.16-0.01-0.241
							c0-2.497,1.815-4.713,4.372-5.124l6.899-1.123c2.367-0.391,4.623,0.882,5.576,2.968c0.191,0.411,0.321,0.852,0.401,1.324
							C305.616,260.746,305.637,261.027,305.637,261.308z"/>
						<path style="fill:#55333F;" d="M302.845,263.71c-0.598,0.397-1.288,0.675-2.042,0.796l-6.899,1.123
							c-0.237,0.038-0.472,0.06-0.705,0.065c-4.279,0.108-5.893-5.866-2.108-7.865c0.488-0.258,1.025-0.441,1.6-0.534l6.899-1.123
							c0.419-0.069,0.835-0.086,1.24-0.056C304.647,256.404,306.034,261.594,302.845,263.71z"/>
					</g>
				</g>
			</g>
			<g>
				<path style="fill:#343B57;" d="M248.317,433.858c0,1.424-0.572,2.708-1.504,3.63c-0.933,0.932-2.216,1.504-3.64,1.504h-57.089
					c-2.838,0-5.134-2.296-5.134-5.134c0-1.424,0.572-2.707,1.504-3.64c0.933-0.933,2.216-1.504,3.63-1.504h57.089
					C246.01,428.714,248.317,431.021,248.317,433.858z"/>
				<g>
					<path style="fill:#252C45;" d="M248.321,433.857c0,1.424-0.572,2.712-1.511,3.632c-0.93,0.93-2.218,1.501-3.642,1.501h-20.487
						c-2.838,0-5.144-2.296-5.144-5.134c0-1.424,0.581-2.703,1.511-3.642c0.93-0.93,2.228-1.501,3.632-1.501h20.487
						C246.006,428.713,248.321,431.019,248.321,433.857z"/>
					<path style="fill:#2A304A;" d="M243.236,433.857c0,1.424-0.571,2.712-1.511,3.632c-0.93,0.93-2.218,1.501-3.642,1.501h-15.401
						c-2.838,0-5.144-2.296-5.144-5.134c0-1.424,0.581-2.703,1.511-3.642c0.93-0.93,2.228-1.501,3.632-1.501h15.401
						C240.921,428.713,243.236,431.019,243.236,433.857z"/>
				</g>
			</g>
			<g>
				<path style="fill:#2A304A;" d="M298.673,434.06v4.93h-42.126v-4.93c0-8.631,6.984-15.615,15.615-15.615h10.897
					C291.689,418.446,298.673,425.43,298.673,434.06z"/>
				<path style="fill:#343B57;" d="M290.188,434.06v4.93h-33.641v-4.93c0-8.631,6.984-15.615,15.615-15.615h2.412
					C283.204,418.446,290.188,425.43,290.188,434.06z"/>
			</g>
			<g>
				<g>
					<path style="fill:#7E8BFA;" d="M384.954,293.29c0,0,13.923,5.113,27.564,19.442c5.459,5.734,9.442,12.714,11.765,20.283
						l19.362,72.097c0.349,1.136,0.626,2.291,0.809,3.465c0.069,0.447,0.14,0.953,0.207,1.512
						c1.882,15.896-11.068,29.645-27.055,28.874l-81.345-3.924c-11.81-0.57-21.162-10.346-21.01-22.168
						c0.003-0.2,0.006-0.401,0.012-0.601c0.318-12.335,10.959-21.881,23.279-21.197l60.053,3.334l-9.94-51.941
						C388.654,342.464,381.639,311.13,384.954,293.29z"/>
					<path style="fill:#929EFB;" d="M404.074,398.922l-63.866-3.37c-6.908-0.609-11.856,1.161-15.406,3.967
						c-12.972,10.222-7.923,30.969,7.258,34.902c-9.748-2.367-16.938-11.168-16.814-21.548c0.011-0.203,0.011-0.406,0.011-0.609
						c0.327-12.329,10.965-21.875,23.283-21.198l60.056,3.336l-9.94-51.942c0,0-4.801-21.413-4.587-38.915
						c0.518,7.235,3.302,17.626,3.302,17.626L404.074,398.922z"/>
					<path style="fill:#6A76E3;" d="M417.609,438.964l-81.345-3.922c-11.213-0.552-20.195-9.376-20.962-20.376
						c3.426,6.987,10.503,11.923,18.787,12.318l81.345,3.933c15.98,0.766,28.941-12.983,27.047-28.884
						c-0.056-0.552-0.135-1.059-0.203-1.51c-0.09-0.586-0.203-1.161-0.338-1.747l1.702,6.334c0.349,1.138,0.631,2.288,0.811,3.471
						c0.068,0.439,0.135,0.947,0.203,1.51C446.539,425.981,433.59,439.73,417.609,438.964z"/>
					<path style="fill:#8A97FB;" d="M420.271,327.528c2.489,5.859,1.603,11.843-1.98,13.365c-3.583,1.522-8.505-1.994-10.994-7.853
						c-2.489-5.859-1.603-11.843,1.98-13.365C412.86,318.153,417.782,321.669,420.271,327.528z"/>
				</g>
				<g>
					<path style="fill:#F29D8F;" d="M344.029,416.939c-0.012,0.12-0.024,0.251-0.036,0.371c-0.682,7.051-7.23,12.043-14.234,11.073
						l-26.504-3.675l-8.882-1.664h-34.117c-1.664,0-2.921-1.496-2.622-3.125c0.012-0.036,0.024-0.084,0.024-0.12
						c0.12-0.634,0.275-1.257,0.455-1.867c1.544-5.315,5.231-9.792,10.355-12.019c1.317-0.574,2.191-0.778,2.191-0.778
						c12.977-9.661,32.693-1.544,32.693-1.544h28.108c4.872,0,9.134,2.765,11.217,6.764
						C343.706,412.306,344.22,414.569,344.029,416.939z"/>
					<path style="fill:#FEB6AA;" d="M328.383,423.379l-26.492-3.675l-8.894-1.664h-34.117c-0.263,0-0.527-0.036-0.766-0.108
						c1.544-5.315,5.231-9.792,10.355-12.019c1.317-0.574,2.191-0.778,2.191-0.778c12.977-9.661,32.693-1.544,32.693-1.544h28.108
						c0.436,0,0.868,0.022,1.293,0.065c7.997,0.813,11.883,10.638,6.44,16.553C337.096,422.489,333.743,424.073,328.383,423.379z"/>
					<path style="fill:#BF6F61;" d="M303.355,403.596c0,0,2.324,2.415,3.379,5.335c0.177,0.492,0.654,0.811,1.176,0.811l0,0
						c0.93,0,1.548-0.968,1.144-1.805c-0.562-1.164-1.443-2.752-2.68-4.341H303.355z"/>
				</g>
			</g>
		</g>
	</g>
	<g>
		<g>
			<path style="fill:#331E25;" d="M531.83,445.845c0,1.903-0.773,3.628-2.022,4.877c-1.237,1.237-2.962,2.01-4.865,2.01H77.683
				c-3.806,0-6.887-3.081-6.887-6.887c0-1.903,0.773-3.628,2.022-4.877c1.237-1.237,2.962-2.01,4.865-2.01h447.259
				C528.749,438.958,531.83,442.039,531.83,445.845z"/>
			<path style="fill:#492934;" d="M485.489,445.845c0,1.903-0.773,3.628-2.022,4.877c-1.237,1.237-2.962,2.01-4.865,2.01H77.683
				c-3.806,0-6.887-3.081-6.887-6.887c0-1.903,0.773-3.628,2.022-4.877c1.237-1.237,2.962-2.01,4.865-2.01h400.918
				C482.408,438.958,485.489,442.039,485.489,445.845z"/>
			<g>
				<path style="fill:#55333F;" d="M95.362,448.712H78.668c-2.112,0-3.823-1.712-3.823-3.823l0,0c0-2.112,1.712-3.823,3.823-3.823
					h16.695c2.112,0,3.823,1.712,3.823,3.823l0,0C99.186,447.001,97.474,448.712,95.362,448.712z"/>
				<path style="fill:#55333F;" d="M110.4,448.712h-3.313c-2.112,0-3.823-1.712-3.823-3.823l0,0c0-2.112,1.712-3.823,3.823-3.823
					h3.313c2.112,0,3.823,1.712,3.823,3.823l0,0C114.224,447.001,112.512,448.712,110.4,448.712z"/>
			</g>
		</g>
		<g>
			<g>
				<path style="fill:#492934;" d="M116.73,417.295l-3.21,14.63c-0.24,1.06-0.66,2.05-1.22,2.92c-1.56,2.44-4.25,4.03-7.27,4.11
					c-0.08,0.01-0.17,0.01-0.26,0.01h-8.58c-0.09,0-0.17,0-0.26-0.01c-3.01-0.08-5.7-1.67-7.26-4.11c-0.57-0.87-0.99-1.86-1.22-2.92
					l-3.22-14.63H116.73z"/>
				<path style="fill:#55333F;" d="M110.608,417.293l-3.225,14.636c-0.906,4.103-4.541,7.031-8.749,7.031h-2.442
					c-4.198,0-7.833-2.929-8.739-7.031l-3.225-14.636H110.608z"/>
				<path style="fill:#331E25;" d="M112.3,434.845c-1.56,2.44-4.25,4.03-7.27,4.11h-9.1c-3.01-0.08-5.7-1.67-7.26-4.11H112.3z"/>
			</g>
			<g>
				<path style="fill:#828A9C;" d="M98.576,417.296c0,0,3.884-58.679-51.929-60.467c0,0,10.836,24.586,21.671,31.742
					c0,0,8.382,0,14.005,0.818c0,0-4.951,2.223-9.682,4.536c0,0,12.34,16.931,20.416,23.371H98.576z"/>
				<path style="fill:#828A9C;" d="M102.994,417.296c0,0,4.986-65.32,49.351-65.32c0,0-5.52,17.991-17.582,33.938
					c0,0-5.367-1.278-8.893-2.198c0,0,3.067,2.913,4.6,6.593c0,0-11.5,19.78-20.547,26.987H102.994z"/>
				<path style="fill:#9BA0AD;" d="M101.643,417.296c0,0,12.267-75.747-37.107-98.747c0,0-1.533,19.627,2.76,29.133
					c0,0,5.213,0.92,9.2,2.913c0,0-4.498,1.073-7.156,1.993c0,0,3.169,9.609,6.236,15.333c0,0,6.031-1.329,12.369,0
					c0,0-5.52,3.169-8.791,5.418c0,0,8.382,27.702,17.582,43.956H101.643z"/>
				<path style="fill:#9BA0AD;" d="M98.576,417.296c0,0-15.947-101.814,36.187-101.814c0,0-3.527,17.634-8.893,25.3
					c0,0-5.847,0.745-8.74,1.533c0,0,5.213,1.993,7.283,4.063c0,0-2.837,12.65-6.057,20.623c0,0-1.84-0.383-6.21,0.077
					c0,0,3.067,1.38,4.447,2.76c0,0-3.629,25.795-11.539,47.457H98.576z"/>
			</g>
		</g>
		<g>
			<g>
				<path style="fill:#2A304A;" d="M267.842,381.193l-30.314-78.901c-1.882-4.898-6.587-8.131-11.835-8.131h-123.96
					c-4.93,0-8.327,4.945-6.559,9.547l30.314,78.901c1.882,4.898,6.587,8.131,11.835,8.131h123.96
					C266.213,390.74,269.61,385.795,267.842,381.193z"/>
				<path style="fill:#525B83;" d="M246.903,390.74h-123.96c-5.25,0-9.95-3.23-11.83-8.13l-30.32-78.9
					c-1.77-4.61,1.63-9.55,6.56-9.55h123.96c5.25,0,9.95,3.23,11.84,8.13l30.31,78.9C255.233,385.79,251.833,390.74,246.903,390.74z
					"/>
				<path style="fill:#656D8F;" d="M253.703,381.95l-29.12-75.8c-1.89-4.9-6.59-8.13-11.84-8.13H88.783c-4.66,0-7.95,4.41-6.8,8.79
					l-1.19-3.1c-1.77-4.61,1.63-9.55,6.56-9.55h123.96c5.25,0,9.95,3.23,11.84,8.13l30.31,78.9
					C253.563,381.44,253.643,381.7,253.703,381.95z"/>
				<path style="fill:#3F4870;" d="M171.913,362.44l-2.95,28.3h-31.88l6.93-29.24c0.31-1.41,1.56-2.41,3-2.41h21.84
					C170.653,359.09,172.073,360.64,171.913,362.44z"/>
			</g>
			<g>
				<path style="fill:#525B83;" d="M205.663,438.953h-83.799v-9.051c0-2.447,1.984-4.431,4.431-4.431h74.937
					c2.447,0,4.431,1.984,4.431,4.431V438.953z"/>
				<path style="fill:#525B83;" d="M205.663,438.953h-83.799v-9.051c0-2.447,1.984-4.431,4.431-4.431h74.937
					c2.447,0,4.431,1.984,4.431,4.431V438.953z"/>
				<path style="fill:#5C658A;" d="M205.663,429.9v1.61c0-2.45-1.98-4.43-4.43-4.43h-74.94c-2.44,0-4.43,1.98-4.43,4.43v-1.61
					c0-2.45,1.99-4.43,4.43-4.43h74.94C203.683,425.47,205.663,427.45,205.663,429.9z"/>
				<g>
					<path style="fill:#373F69;" d="M205.666,429.903v9.055h-18.542v-9.055c0-2.451,1.988-4.428,4.428-4.428h9.676
						C203.679,425.475,205.666,427.452,205.666,429.903z"/>
					<path style="fill:#3F4870;" d="M203.933,426.39h-11.42c-2.27,0-4.13,1.85-4.13,4.13v8.44h-1.26v-9.06
						c0-2.45,1.99-4.43,4.43-4.43h9.68C202.243,425.47,203.183,425.82,203.933,426.39z"/>
				</g>
			</g>
			<path style="fill:#2A304A;" d="M196.247,369.027l-5.443-14.166c-0.338-0.879-1.183-1.46-2.125-1.46h-50.255
				c-0.885,0-1.495,0.888-1.178,1.714l5.443,14.166c0.338,0.879,1.183,1.46,2.125,1.46h50.255
				C195.955,370.741,196.564,369.853,196.247,369.027z"/>
			<g>
				<path style="fill:#3F4870;" d="M185.833,362.44l-6.02,57.66l-0.56,5.37h-36.48l1.27-5.37l13.9-58.6c0.31-1.41,1.55-2.41,3-2.41
					h21.83C184.583,359.09,185.993,360.64,185.833,362.44z"/>
				<path style="fill:#525B83;" d="M133.778,425.471l15.165-63.97c0.311-1.407,1.559-2.408,3-2.408h21.837
					c1.804,0,3.219,1.547,3.06,3.343l-6.583,63.034H133.778z"/>
				<path style="fill:#525B83;" d="M176.843,362.44l-6.03,57.66l-0.56,5.37h-36.48l1.27-5.37l13.9-58.6c0.31-1.41,1.56-2.41,3-2.41
					h21.84C175.583,359.09,177.003,360.64,176.843,362.44z"/>
				<path style="fill:#656D8F;" d="M176.493,360.73c-0.33-0.12-0.69-0.19-1.06-0.19h-21.83c-1.44,0-2.69,1-3,2.41l-14.83,62.52h-2
					l15.17-63.97c0.31-1.41,1.56-2.41,3-2.41h21.84C174.973,359.09,175.993,359.76,176.493,360.73z"/>
				<g>
					<path style="fill:#2A304A;" d="M166.592,371.741c0,2.657-2.154,4.81-4.811,4.81c-2.657,0-4.81-2.154-4.81-4.81
						c0-2.657,2.154-4.811,4.81-4.811C164.439,366.93,166.592,369.084,166.592,371.741z"/>
					<path style="fill:#21263B;" d="M164.139,372.678h-4.714c-0.518,0-0.938-0.42-0.938-0.938l0,0c0-0.518,0.42-0.938,0.938-0.938
						h4.714c0.518,0,0.938,0.42,0.938,0.938l0,0C165.077,372.259,164.657,372.678,164.139,372.678z"/>
				</g>
				<polygon style="fill:#21263B;" points="179.813,420.1 179.253,425.47 133.773,425.47 135.043,420.1 				"/>
			</g>
		</g>
		<g>
			<polygon style="fill:#492934;" points="497.619,378.48 497.219,382.06 496.509,388.41 496.139,391.69 493.549,414.78 
				493.059,419.19 491.449,433.49 490.829,438.96 457.739,438.96 457.019,433.49 455.149,419.19 454.569,414.78 451.539,391.69 
				451.109,388.41 450.279,382.06 449.809,378.48 			"/>
			<polygon style="fill:#331E25;" points="496.509,388.41 496.139,391.69 493.549,414.78 493.059,419.19 455.149,419.19 
				454.569,414.78 451.539,391.69 451.109,388.41 			"/>
			<polygon style="fill:#331E25;" points="497.619,378.48 497.219,382.06 450.279,382.06 449.809,378.48 			"/>
			<polygon style="fill:#331E25;" points="491.449,433.49 490.829,438.96 457.739,438.96 457.019,433.49 			"/>
			<g>
				<path style="fill:#EDE4E7;" d="M497.239,393.67l-2.3,20.43c-0.13,1.16-1.11,2.04-2.28,2.04h-37.21c-1.16,0-2.13-0.85-2.28-2
					l-2.69-20.43c-0.14-1.07,0.69-2.02,1.77-2.02h43.21C496.529,391.69,497.349,392.621,497.239,393.67z"/>
				<path style="fill:#FFFFFF;" d="M490.709,393.67l-2.29,20.43c-0.13,1.16-1.12,2.04-2.29,2.04h-30.68c-1.16,0-2.13-0.85-2.28-2
					l-2.69-20.43c-0.14-1.07,0.69-2.02,1.77-2.02h36.69C489.999,391.69,490.829,392.621,490.709,393.67z"/>
			</g>
			<g>
				<g>
					<path style="fill:#EDE4E7;" d="M502.349,373.76c0,1.31-0.53,2.49-1.39,3.34c-0.85,0.85-2.04,1.38-3.34,1.38h-48.96
						c-2.61,0-4.72-2.11-4.72-4.72c0-1.31,0.53-2.49,1.38-3.34c0.86-0.86,2.04-1.39,3.34-1.39h48.96
						C500.229,369.03,502.349,371.15,502.349,373.76z"/>
					<path style="fill:#FFFFFF;" d="M493.239,373.76c0,1.31-0.53,2.49-1.38,3.34c-0.86,0.85-2.04,1.38-3.34,1.38h-39.86
						c-2.61,0-4.72-2.11-4.72-4.72c0-1.31,0.53-2.49,1.38-3.34c0.86-0.86,2.04-1.39,3.34-1.39h39.86
						C491.129,369.03,493.239,371.15,493.239,373.76z"/>
				</g>
				<path style="fill:#FFFFFF;" d="M497.619,369.03h-47.81l1.13-2.32l1.65-3.37c0.38-0.78,1.17-1.28,2.03-1.28h38.19
					c0.87,0,1.66,0.5,2.04,1.28l1.64,3.37L497.619,369.03z"/>
				<path style="fill:#EBDFE3;" d="M488.078,362.063h-5.817v-0.727c0-0.628,0.509-1.136,1.136-1.136h3.545
					c0.628,0,1.136,0.509,1.136,1.136V362.063z"/>
				<polygon style="fill:#DEC8CE;" points="497.619,369.03 449.809,369.03 450.939,366.71 496.489,366.71 				"/>
			</g>
		</g>
		<g>
			<g>
				<g>
					<path style="fill:#656D8F;" d="M229.065,452.86h-55.836c-6.046,0-10.966-4.919-10.966-10.966v-2.911h3v2.911
						c0,4.392,3.573,7.966,7.966,7.966h55.836c4.392,0,7.965-3.573,7.965-7.966c0-2.956,1.159-5.728,3.262-7.804
						c2.104-2.077,4.917-3.207,7.848-3.16l6.733,0.088l-0.039,3l-6.733-0.088c-2.167-0.042-4.173,0.787-5.701,2.296
						c-1.528,1.508-2.37,3.521-2.37,5.668C240.03,447.941,235.111,452.86,229.065,452.86z"/>
				</g>
			</g>
		</g>
	</g>
</g>
</svg>
